<svg width="701" height="701" viewBox="0 0 701 701" fill="none" xmlns="http://www.w3.org/2000/svg">
<g clip-path="url(#clip0_399_3012)">
<path d="M700.345 0.5H0.345215V700.5H700.345V0.5Z" fill="#F05B2F"/>
<g filter="url(#filter0_f_399_3012)">
<path d="M672.345 528C782.802 528 872.345 438.457 872.345 328C872.345 217.543 782.802 128 672.345 128C561.888 128 472.345 217.543 472.345 328C472.345 438.457 561.888 528 672.345 528Z" fill="#0D672B"/>
<path d="M88.3452 858C198.802 858 288.345 768.457 288.345 658C288.345 547.543 198.802 458 88.3452 458C-22.1117 458 -111.655 547.543 -111.655 658C-111.655 768.457 -22.1117 858 88.3452 858Z" fill="#DFBEF1"/>
<path d="M180.345 318C290.802 318 380.345 228.457 380.345 118C380.345 7.54305 290.802 -82 180.345 -82C69.8883 -82 -19.6548 7.54305 -19.6548 118C-19.6548 228.457 69.8883 318 180.345 318Z" fill="#D15B2E"/>
<path d="M656.345 827C766.802 827 856.345 737.457 856.345 627C856.345 516.543 766.802 427 656.345 427C545.888 427 456.345 516.543 456.345 627C456.345 737.457 545.888 827 656.345 827Z" fill="#F05B2F"/>
<path d="M677.345 247.5C787.802 247.5 877.345 157.957 877.345 47.5C877.345 -62.9569 787.802 -152.5 677.345 -152.5C566.888 -152.5 477.345 -62.9569 477.345 47.5C477.345 157.957 566.888 247.5 677.345 247.5Z" fill="#0D672B"/>
<path d="M219.345 723C329.802 723 419.345 633.457 419.345 523C419.345 412.543 329.802 323 219.345 323C108.888 323 19.3452 412.543 19.3452 523C19.3452 633.457 108.888 723 219.345 723Z" fill="#DFBEF1"/>
<path d="M457.345 435C567.802 435 657.345 345.457 657.345 235C657.345 124.543 567.802 35 457.345 35C346.888 35 257.345 124.543 257.345 235C257.345 345.457 346.888 435 457.345 435Z" fill="#D15B2E"/>
<path d="M397.345 221C507.802 221 597.345 131.457 597.345 21C597.345 -89.4569 507.802 -179 397.345 -179C286.888 -179 197.345 -89.4569 197.345 21C197.345 131.457 286.888 221 397.345 221Z" fill="#0D672B"/>
<path d="M23.3452 371.5C78.5737 371.5 123.345 326.728 123.345 271.5C123.345 216.272 78.5737 171.5 23.3452 171.5C-31.8833 171.5 -76.6548 216.272 -76.6548 271.5C-76.6548 326.728 -31.8833 371.5 23.3452 371.5Z" fill="#D15B2E"/>
<path d="M469.345 662C508.005 662 539.345 630.66 539.345 592C539.345 553.34 508.005 522 469.345 522C430.685 522 399.345 553.34 399.345 592C399.345 630.66 430.685 662 469.345 662Z" fill="#0D672B"/>
<path d="M350.345 442C377.959 442 400.345 419.614 400.345 392C400.345 364.386 377.959 342 350.345 342C322.731 342 300.345 364.386 300.345 392C300.345 419.614 322.731 442 350.345 442Z" fill="#DFBEF1"/>
<path d="M390.345 337C423.482 337 450.345 310.137 450.345 277C450.345 243.863 423.482 217 390.345 217C357.208 217 330.345 243.863 330.345 277C330.345 310.137 357.208 337 390.345 337Z" fill="#D15B2E"/>
<path d="M569.345 507C608.005 507 639.345 475.66 639.345 437C639.345 398.34 608.005 367 569.345 367C530.685 367 499.345 398.34 499.345 437C499.345 475.66 530.685 507 569.345 507Z" fill="#0D672B"/>
<path d="M205.345 871C315.802 871 405.345 781.457 405.345 671C405.345 560.543 315.802 471 205.345 471C94.8883 471 5.34521 560.543 5.34521 671C5.34521 781.457 94.8883 871 205.345 871Z" fill="#DFBEF1"/>
<path d="M519.345 289C629.802 289 719.345 199.457 719.345 89C719.345 -21.4569 629.802 -111 519.345 -111C408.888 -111 319.345 -21.4569 319.345 89C319.345 199.457 408.888 289 519.345 289Z" fill="#0D672B"/>
<path d="M195.345 232C305.802 232 395.345 142.457 395.345 32C395.345 -78.4569 305.802 -168 195.345 -168C84.8883 -168 -4.65479 -78.4569 -4.65479 32C-4.65479 142.457 84.8883 232 195.345 232Z" fill="#F05B2F"/>
</g>
</g>
<defs>
<filter id="filter0_f_399_3012" x="-261.655" y="-329" width="1289" height="1350" filterUnits="userSpaceOnUse" color-interpolation-filters="sRGB">
<feFlood flood-opacity="0" result="BackgroundImageFix"/>
<feBlend mode="normal" in="SourceGraphic" in2="BackgroundImageFix" result="shape"/>
<feGaussianBlur stdDeviation="75" result="effect1_foregroundBlur_399_3012"/>
</filter>
<clipPath id="clip0_399_3012">
<rect width="700" height="700" fill="white" transform="translate(0.345215 0.5)"/>
</clipPath>
</defs>
</svg>
